#Comment line ignore any data following # character 
#Hierarchical Translation and Rotation (.htr) file 
[Header]	
#Header keywords are followed by a single value 
FileType HTR		#Single word string
DataType HTRS		#Translation followed by rotation and scale data
FileVersion 1		#integer
NumSegments 84		#integer
NumFrames 2		#integer
DataFrameRate 30		#integer, data frame rate in this file
EulerRotationOrder ZYX
CalibrationUnits mm
RotationUnits Degrees
GlobalAxisofGravity Y
BoneLengthAxis Y
ScaleFactor 1.00
[SegmentNames&Hierarchy]
#CHILD	PARENT
MASTER GLOBAL
root MASTER
chest root
L_mid_tent01 root
R_mid_tent01 root
spine01 root
Bip01_Neck chest
L_humerus chest
R_humerus chest
weapon_bone chest
Bip01_Head Bip01_Neck
eye_left_bone Bip01_Head
eye_right_bone Bip01_Head
L_forearm L_humerus
L_front_hand L_forearm
L_weapon_bone L_forearm
L_front_hand01_01 L_front_hand
L_front_hand02_01 L_front_hand
L_front_hand03_01 L_front_hand
L_front_hand01_02 L_front_hand01_01
L_front_hand02_02 L_front_hand02_01
L_front_hand03_02 L_front_hand03_01
R_forearm R_humerus
R_front_hand R_forearm
R_weapon_bone R_forearm
R_front_hand01_01 R_front_hand
R_front_hand02_01 R_front_hand
R_front_hand03_01 R_front_hand
R_front_hand01_02 R_front_hand01_01
R_front_hand02_02 R_front_hand02_01
R_front_hand03_02 R_front_hand03_01
null_rope01_connect L_mid_tent01
Rope1_Seg01 null_rope01_connect
Rope1_Seg02 Rope1_Seg01
Rope1_Seg03 Rope1_Seg02
Rope1_Seg04 Rope1_Seg03
Rope1_Seg05 Rope1_Seg04
Rope1_Seg06 Rope1_Seg05
Rope1_Seg07 Rope1_Seg06
Rope1_Seg09 Rope1_Seg07
L_mid_hand01 Rope1_Seg09
L_mid_hand02 Rope1_Seg09
L_mid_hand03 Rope1_Seg09
null_rope02_connect R_mid_tent01
Rope2_Seg01 null_rope02_connect
Rope2_Seg02 Rope2_Seg01
Rope2_Seg03 Rope2_Seg02
Rope2_Seg04 Rope2_Seg03
Rope2_Seg05 Rope2_Seg04
Rope2_Seg06 Rope2_Seg05
Rope2_Seg07 Rope2_Seg06
Rope2_Seg09 Rope2_Seg07
R_mid_hand01 Rope2_Seg09
R_mid_hand02 Rope2_Seg09
R_mid_hand03 Rope2_Seg09
spine02 spine01
spine03 spine02
pelvis spine03
null_rope03_connect pelvis
null_rope04_connect pelvis
Rope3_Seg01 null_rope03_connect
Rope3_Seg02 Rope3_Seg01
Rope3_Seg03 Rope3_Seg02
Rope3_Seg04 Rope3_Seg03
Rope3_Seg05 Rope3_Seg04
Rope3_Seg06 Rope3_Seg05
Rope3_Seg07 Rope3_Seg06
Rope3_Seg08 Rope3_Seg07
Rope3_Seg09 Rope3_Seg08
R_rear_hand01 Rope3_Seg09
R_rear_hand02 Rope3_Seg09
R_rear_hand03 Rope3_Seg09
Rope4_Seg01 null_rope04_connect
Rope4_Seg02 Rope4_Seg01
Rope4_Seg03 Rope4_Seg02
Rope4_Seg04 Rope4_Seg03
Rope4_Seg05 Rope4_Seg04
Rope4_Seg06 Rope4_Seg05
Rope4_Seg07 Rope4_Seg06
Rope4_Seg08 Rope4_Seg07
Rope4_Seg09 Rope4_Seg08
L_rear_hand01 Rope4_Seg09
L_rear_hand02 Rope4_Seg09
L_rear_hand03 Rope4_Seg09
[BasePosition]
#SegmentName Tx, Ty, Tz, Rx, Ry, Rz, BoneLength
MASTER 0.000000 0.000000 0.000000 -90.000000 0.000000 0.000000 10.000000 
root 0.000000 0.000000 0.000000 0.000000 0.000000 0.000000 10.000000 
chest 0.000000 0.000000 0.000000 0.000000 0.000000 0.000000 10.000000 
L_mid_tent01 0.000000 0.000000 0.000000 0.000000 0.000000 0.000000 10.000000 
R_mid_tent01 0.000000 0.000000 0.000000 0.000000 0.000000 0.000000 10.000000 
spine01 0.000000 0.000000 0.000000 0.000000 0.000000 0.000000 10.000000 
Bip01_Neck 0.000000 0.000000 0.000000 0.000000 0.000000 0.000000 10.000000 
L_humerus 0.000000 0.000000 0.000000 0.000000 0.000000 0.000000 10.000000 
R_humerus 0.000000 0.000000 0.000000 0.000000 0.000000 0.000000 10.000000 
weapon_bone 0.000000 0.000000 0.000000 0.000000 0.000000 0.000000 10.000000 
Bip01_Head 0.000000 0.000000 0.000000 0.000000 0.000000 0.000000 10.000000 
eye_left_bone 0.000000 0.000000 0.000000 0.000000 0.000000 0.000000 10.000000 
eye_right_bone 0.000000 0.000000 0.000000 0.000000 0.000000 0.000000 10.000000 
L_forearm 0.000000 0.000000 0.000000 0.000000 0.000000 0.000000 10.000000 
L_front_hand 0.000000 0.000000 0.000000 0.000000 0.000000 0.000000 10.000000 
L_weapon_bone 0.000000 0.000000 0.000000 0.000000 0.000000 0.000000 10.000000 
L_front_hand01_01 0.000000 0.000000 0.000000 0.000000 0.000000 0.000000 10.000000 
L_front_hand02_01 0.000000 0.000000 0.000000 0.000000 0.000000 0.000000 10.000000 
L_front_hand03_01 0.000000 0.000000 0.000000 0.000000 0.000000 0.000000 10.000000 
L_front_hand01_02 0.000000 0.000000 0.000000 0.000000 0.000000 0.000000 10.000000 
L_front_hand02_02 0.000000 0.000000 0.000000 0.000000 0.000000 0.000000 10.000000 
L_front_hand03_02 0.000000 0.000000 0.000000 0.000000 0.000000 0.000000 10.000000 
R_forearm 0.000000 0.000000 0.000000 0.000000 0.000000 0.000000 10.000000 
R_front_hand 0.000000 0.000000 0.000000 0.000000 0.000000 0.000000 10.000000 
R_weapon_bone 0.000000 0.000000 0.000000 0.000000 0.000000 0.000000 10.000000 
R_front_hand01_01 0.000000 0.000000 0.000000 0.000000 0.000000 0.000000 10.000000 
R_front_hand02_01 0.000000 0.000000 0.000000 0.000000 0.000000 0.000000 10.000000 
R_front_hand03_01 0.000000 0.000000 0.000000 0.000000 0.000000 0.000000 10.000000 
R_front_hand01_02 0.000000 0.000000 0.000000 0.000000 0.000000 0.000000 10.000000 
R_front_hand02_02 0.000000 0.000000 0.000000 0.000000 0.000000 0.000000 10.000000 
R_front_hand03_02 0.000000 0.000000 0.000000 0.000000 0.000000 0.000000 10.000000 
null_rope01_connect 0.000000 0.000000 0.000000 0.000000 0.000000 0.000000 10.000000 
Rope1_Seg01 0.000000 0.000000 0.000000 0.000000 0.000000 0.000000 10.000000 
Rope1_Seg02 0.000000 0.000000 0.000000 0.000000 0.000000 0.000000 10.000000 
Rope1_Seg03 0.000000 0.000000 0.000000 0.000000 0.000000 0.000000 10.000000 
Rope1_Seg04 0.000000 0.000000 0.000000 0.000000 0.000000 0.000000 10.000000 
Rope1_Seg05 0.000000 0.000000 0.000000 0.000000 0.000000 0.000000 10.000000 
Rope1_Seg06 0.000000 0.000000 0.000000 0.000000 0.000000 0.000000 10.000000 
Rope1_Seg07 0.000000 0.000000 0.000000 0.000000 0.000000 0.000000 10.000000 
Rope1_Seg09 0.000000 0.000000 0.000000 0.000000 0.000000 0.000000 10.000000 
L_mid_hand01 0.000000 0.000000 0.000000 0.000000 0.000000 0.000000 10.000000 
L_mid_hand02 0.000000 0.000000 0.000000 0.000000 0.000000 0.000000 10.000000 
L_mid_hand03 0.000000 0.000000 0.000000 0.000000 0.000000 0.000000 10.000000 
null_rope02_connect 0.000000 0.000000 0.000000 0.000000 0.000000 0.000000 10.000000 
Rope2_Seg01 0.000000 0.000000 0.000000 0.000000 0.000000 0.000000 10.000000 
Rope2_Seg02 0.000000 0.000000 0.000000 0.000000 0.000000 0.000000 10.000000 
Rope2_Seg03 0.000000 0.000000 0.000000 0.000000 0.000000 0.000000 10.000000 
Rope2_Seg04 0.000000 0.000000 0.000000 0.000000 0.000000 0.000000 10.000000 
Rope2_Seg05 0.000000 0.000000 0.000000 0.000000 0.000000 0.000000 10.000000 
Rope2_Seg06 0.000000 0.000000 0.000000 0.000000 0.000000 0.000000 10.000000 
Rope2_Seg07 0.000000 0.000000 0.000000 0.000000 0.000000 0.000000 10.000000 
Rope2_Seg09 0.000000 0.000000 0.000000 0.000000 0.000000 0.000000 10.000000 
R_mid_hand01 0.000000 0.000000 0.000000 0.000000 0.000000 0.000000 10.000000 
R_mid_hand02 0.000000 0.000000 0.000000 0.000000 0.000000 0.000000 10.000000 
R_mid_hand03 0.000000 0.000000 0.000000 0.000000 0.000000 0.000000 10.000000 
spine02 0.000000 0.000000 0.000000 0.000000 0.000000 0.000000 10.000000 
spine03 0.000000 0.000000 0.000000 0.000000 0.000000 0.000000 10.000000 
pelvis 0.000000 0.000000 0.000000 0.000000 0.000000 0.000000 10.000000 
null_rope03_connect 0.000000 0.000000 0.000000 0.000000 0.000000 0.000000 10.000000 
null_rope04_connect 0.000000 0.000000 0.000000 0.000000 0.000000 0.000000 10.000000 
Rope3_Seg01 0.000000 0.000000 0.000000 0.000000 0.000000 0.000000 10.000000 
Rope3_Seg02 0.000000 0.000000 0.000000 0.000000 0.000000 0.000000 10.000000 
Rope3_Seg03 0.000000 0.000000 0.000000 0.000000 0.000000 0.000000 10.000000 
Rope3_Seg04 0.000000 0.000000 0.000000 0.000000 0.000000 0.000000 10.000000 
Rope3_Seg05 0.000000 0.000000 0.000000 0.000000 0.000000 0.000000 10.000000 
Rope3_Seg06 0.000000 0.000000 0.000000 0.000000 0.000000 0.000000 10.000000 
Rope3_Seg07 0.000000 0.000000 0.000000 0.000000 0.000000 0.000000 10.000000 
Rope3_Seg08 0.000000 0.000000 0.000000 0.000000 0.000000 0.000000 10.000000 
Rope3_Seg09 0.000000 0.000000 0.000000 0.000000 0.000000 0.000000 10.000000 
R_rear_hand01 0.000000 0.000000 0.000000 0.000000 0.000000 0.000000 10.000000 
R_rear_hand02 0.000000 0.000000 0.000000 0.000000 0.000000 0.000000 10.000000 
R_rear_hand03 0.000000 0.000000 0.000000 0.000000 0.000000 0.000000 10.000000 
Rope4_Seg01 0.000000 0.000000 0.000000 0.000000 0.000000 0.000000 10.000000 
Rope4_Seg02 0.000000 0.000000 0.000000 0.000000 0.000000 0.000000 10.000000 
Rope4_Seg03 0.000000 0.000000 0.000000 0.000000 0.000000 0.000000 10.000000 
Rope4_Seg04 0.000000 0.000000 0.000000 0.000000 0.000000 0.000000 10.000000 
Rope4_Seg05 0.000000 0.000000 0.000000 0.000000 0.000000 0.000000 10.000000 
Rope4_Seg06 0.000000 0.000000 0.000000 0.000000 0.000000 0.000000 10.000000 
Rope4_Seg07 0.000000 0.000000 0.000000 0.000000 0.000000 0.000000 10.000000 
Rope4_Seg08 0.000000 0.000000 0.000000 0.000000 0.000000 0.000000 10.000000 
Rope4_Seg09 0.000000 0.000000 0.000000 0.000000 0.000000 0.000000 10.000000 
L_rear_hand01 0.000000 0.000000 0.000000 0.000000 0.000000 0.000000 10.000000 
L_rear_hand02 0.000000 0.000000 0.000000 0.000000 0.000000 0.000000 10.000000 
L_rear_hand03 0.000000 0.000000 0.000000 0.000000 0.000000 0.000000 10.000000 
#Beginning of Data. Separated by tabs
#Fr	Tx	Ty	Tz	Rx	Ry	Rz	SF
[MASTER]
18 0.000667 -6206.532715 -336.616272 0.001660 0.001660 0.001660 6215.654297
19 0.000696 -6474.467285 -313.468201 0.001660 0.001660 0.001660 6482.051758
[root]
18 -34.550789 -55.787354 1502.220215 -100.628311 -49.722107 -86.274284 1503.652832
19 -33.834404 -56.106567 1502.133301 -100.860397 -49.200581 -86.442604 1503.561523
[chest]
18 -84.512650 -34.090519 0.000000 -13.160611 -23.199308 169.522598 91.129311
19 -84.512650 -34.090519 0.000000 -11.995028 -20.156195 169.375412 91.129311
[L_mid_tent01]
18 27.299164 22.179106 -249.918716 6.442094 36.590115 86.356468 252.381699
19 27.299166 22.179106 -249.918716 7.324650 36.671722 88.059723 252.381699
[R_mid_tent01]
18 23.228794 24.509907 226.238495 -90.802536 -62.695469 -16.058872 228.744751
19 23.228794 24.509907 226.238495 -94.322029 -64.931396 -12.429136 228.744751
[spine01]
18 -0.361383 -0.195265 0.000000 0.002015 0.001205 28.249851 0.410763
19 -0.361383 -0.195265 0.000000 0.002008 0.001215 27.655445 0.410763
[Bip01_Neck]
18 165.484543 71.581718 0.000119 176.643677 -1.657967 43.431911 180.302734
19 165.484543 71.581718 0.000119 176.643677 -1.657967 43.431911 180.302734
[L_humerus]
18 -13.983130 -135.272980 -120.471481 156.850555 71.417732 -110.892067 181.680161
19 -13.983130 -135.272980 -120.471481 157.442078 71.267532 -109.998306 181.680161
[R_humerus]
18 -13.983309 -135.273102 125.287651 -173.795227 -69.912918 -90.656609 184.909012
19 -13.983309 -135.273102 125.287651 -174.167709 -70.572388 -90.065094 184.909012
[weapon_bone]
18 235.964890 -300.705902 0.000000 0.000000 -89.951546 -128.212341 382.234833
19 235.964890 -300.705902 0.000000 0.000000 -89.951546 -128.212341 382.234833
[Bip01_Head]
18 213.330078 186.032593 7.681664 28.003050 5.528987 -43.845280 283.155182
19 213.331299 186.029434 7.722458 24.720522 5.140772 -43.854687 283.155121
[eye_left_bone]
18 -24.626970 125.451866 -64.772606 0.000000 -90.000000 -99.840431 143.318359
19 -24.626970 125.451866 -64.772606 0.000000 -90.000000 -99.840431 143.318359
[eye_right_bone]
18 -24.626970 125.451866 64.327362 0.000000 -89.965736 80.156380 143.117676
19 -24.626970 125.451866 64.327362 0.000000 -89.965736 80.156380 143.117676
[L_forearm]
18 322.776093 0.000000 -0.000119 0.000386 0.002315 -71.053322 322.776093
19 322.776093 0.000000 -0.000119 0.000440 0.002306 -68.383209 322.776093
[L_front_hand]
18 241.149185 -0.042021 -3.300071 -133.416840 -1.833969 -27.424505 241.171753
19 241.149185 -0.042021 -3.300071 -67.224388 -1.833755 -27.424618 241.171753
[L_weapon_bone]
18 156.183838 0.000000 0.000000 0.000014 0.000007 0.000001 156.183838
19 156.183838 0.000000 0.000000 0.000014 0.000007 0.000001 156.183838
[L_front_hand01_01]
18 86.095154 20.947098 -0.655860 -0.307662 -0.512638 68.898666 88.609184
19 86.095154 20.947098 -0.655860 -0.320916 -0.506937 70.186234 88.609184
[L_front_hand02_01]
18 86.935165 -11.437475 24.513514 145.311646 -56.611832 -50.692287 91.046425
19 86.935165 -11.437475 24.513514 146.956528 -57.330299 -52.653671 91.046425
[L_front_hand03_01]
18 86.637497 -14.123976 -20.424902 -145.445206 54.832184 -52.559963 90.126129
19 86.637497 -14.123976 -20.424902 -146.987778 55.547066 -54.435093 90.126129
[L_front_hand01_02]
18 71.020905 -0.000179 0.000030 0.000662 0.002262 -57.379887 71.020905
19 71.020905 -0.000179 0.000030 0.000452 0.002303 -67.810211 71.020905
[L_front_hand02_02]
18 71.020927 -0.000119 0.000060 0.000662 0.002262 -57.379887 71.020927
19 71.020927 -0.000119 0.000060 0.000452 0.002303 -67.810211 71.020927
[L_front_hand03_02]
18 71.020905 -0.000060 0.000060 0.000662 0.002262 -57.379887 71.020905
19 71.020905 -0.000060 0.000060 0.000452 0.002303 -67.810211 71.020905
[R_forearm]
18 322.776428 -0.000060 0.000030 0.205745 -0.048503 -77.398911 322.776428
19 322.776428 -0.000060 0.000030 0.204110 -0.058569 -75.654144 322.776428
[R_front_hand]
18 238.847015 -0.006795 2.210259 -83.590340 -10.645110 -26.313051 238.857239
19 238.847015 -0.006795 2.210259 -151.884277 -10.643079 -26.313257 238.857239
[R_weapon_bone]
18 155.664093 0.002503 -0.000030 0.003487 0.001180 -90.988930 155.664078
19 155.664093 0.002503 -0.000030 0.003487 0.001180 -90.988930 155.664078
[R_front_hand01_01]
18 87.624611 14.231146 22.918642 -141.332962 -54.578644 45.979500 91.683487
19 87.624611 14.231146 22.918642 -143.308716 -55.646332 48.383640 91.683487
[R_front_hand02_01]
18 89.356956 14.367283 -19.491137 142.049408 52.992905 48.588470 92.579636
19 89.356956 14.367283 -19.491137 143.926270 54.042889 50.923569 92.579636
[R_front_hand03_01]
18 87.286232 -22.307278 -0.143439 0.083235 -0.444741 -65.732056 90.091743
19 87.286232 -22.307278 -0.143439 0.096859 -0.444787 -67.477783 90.091743
[R_front_hand01_02]
18 71.020905 0.000060 0.000119 0.002262 0.000662 57.380707 71.020905
19 71.020905 0.000060 0.000119 0.002303 0.000452 67.808258 71.020905
[R_front_hand02_02]
18 71.020844 -0.000030 -0.000119 0.002262 0.000662 57.380707 71.020836
19 71.020844 -0.000030 -0.000119 0.002303 0.000452 67.808258 71.020836
[R_front_hand03_02]
18 71.020905 0.000000 0.000030 0.002262 0.000662 57.380707 71.020905
19 71.020905 0.000000 0.000030 0.002303 0.000452 67.808258 71.020905
[null_rope01_connect]
18 328.732483 0.000000 -0.000238 -120.333031 -45.814873 177.518158 328.732483
19 328.732483 0.000000 -0.000238 -121.040054 -45.184002 176.298233 328.732483
[Rope1_Seg01]
18 -0.000023 -0.000015 0.000153 108.397682 2.365200 -168.119324 0.000155
19 -0.000025 -0.000014 0.000153 108.682220 3.056972 -167.569046 0.000155
[Rope1_Seg02]
18 139.999863 -0.000179 0.000000 19.877533 -15.726565 -16.408503 139.999863
19 139.999863 -0.000179 0.000000 19.744247 -16.343466 -15.480536 139.999863
[Rope1_Seg03]
18 139.999924 0.000060 -0.000060 10.063350 -11.674642 -7.380928 139.999924
19 139.999924 0.000060 -0.000060 8.317422 -10.471490 -5.648121 139.999924
[Rope1_Seg04]
18 139.999924 -0.000060 -0.000119 7.497314 -15.184284 -3.139126 139.999924
19 139.999924 -0.000060 -0.000119 6.777558 -13.577463 -2.901662 139.999924
[Rope1_Seg05]
18 139.999832 0.000119 -0.000060 3.534326 -13.799635 0.082227 139.999832
19 139.999832 0.000119 -0.000060 3.529555 -11.939623 -0.491903 139.999832
[Rope1_Seg06]
18 139.999954 0.000119 -0.000060 1.067947 -6.909155 0.229529 139.999954
19 139.999954 0.000119 -0.000060 1.191574 -5.945782 -0.025549 139.999954
[Rope1_Seg07]
18 139.999985 0.000060 0.000000 0.448994 -4.307917 0.212436 139.999985
19 139.999985 0.000060 0.000000 0.578755 -3.753124 0.056923 139.999985
[Rope1_Seg09]
18 121.602913 0.000119 -0.000089 -89.793175 -1.359789 0.847147 121.602913
19 121.602913 0.000119 -0.000089 -89.793175 -1.359789 0.847147 121.602913
[L_mid_hand01]
18 103.859421 1.038730 8.195221 129.242493 -66.931091 -37.458961 104.187431
19 103.859421 1.038730 8.195221 130.544373 -67.584534 -38.866947 104.187431
[L_mid_hand02]
18 105.572853 -4.139662 -10.864139 -168.136536 43.236561 -72.353096 106.211075
19 105.572853 -4.139662 -10.864139 -168.923172 43.409302 -73.498894 106.211075
[L_mid_hand03]
18 104.641464 17.579376 -3.913581 -6.285013 17.719217 74.000862 106.179977
19 104.641464 17.579376 -3.913581 -6.012627 17.808176 74.893669 106.179977
[null_rope02_connect]
18 328.732849 0.000179 -0.000119 -112.981964 7.112651 -22.724550 328.732849
19 328.732849 0.000179 -0.000119 -113.802734 8.989619 -20.424702 328.732849
[Rope2_Seg01]
18 0.000095 0.000416 0.000000 -129.275711 37.628445 -33.045074 0.000426
19 0.000095 0.000433 0.000000 -130.341232 36.923656 -33.789375 0.000444
[Rope2_Seg02]
18 139.999741 -0.000060 -0.000119 3.797210 -4.572299 0.162013 139.999756
19 139.999741 -0.000060 -0.000119 7.205383 -5.597301 -0.996014 139.999756
[Rope2_Seg03]
18 140.000107 0.000030 0.000000 3.839613 -7.352404 0.751582 140.000107
19 140.000107 0.000030 0.000000 6.617709 -8.838851 -0.450735 140.000107
[Rope2_Seg04]
18 139.999802 0.000000 -0.000060 3.631469 -13.628038 2.273804 139.999802
19 139.999802 0.000000 -0.000060 6.212585 -14.882453 0.243412 139.999802
[Rope2_Seg05]
18 139.999985 -0.000060 0.000119 1.256181 -26.845530 6.687757 139.999985
19 139.999985 -0.000060 0.000119 3.031463 -22.441847 3.188722 139.999985
[Rope2_Seg06]
18 139.999893 -0.000030 -0.000119 -3.053354 -30.238932 11.367892 139.999893
19 139.999893 -0.000030 -0.000119 -2.586032 -23.306095 11.842446 139.999893
[Rope2_Seg07]
18 139.999893 0.000060 -0.000060 -1.685396 -17.025335 6.213208 139.999893
19 139.999893 0.000060 -0.000060 -1.069817 -16.653214 9.049677 139.999893
[Rope2_Seg09]
18 121.338966 0.000089 -0.000060 33.793236 -1.359788 -0.847141 121.338966
19 121.338966 0.000089 -0.000060 33.793236 -1.359788 -0.847141 121.338966
[R_mid_hand01]
18 104.680779 11.144459 -10.335981 -24.361835 42.075401 58.684284 105.778534
19 104.680779 11.144459 -10.335981 -20.399694 43.830383 64.493835 105.778534
[R_mid_hand02]
18 104.070427 2.443552 8.231699 59.930573 -60.321301 27.236141 104.424065
19 104.070427 2.443552 8.231699 55.242626 -64.206024 32.532070 104.424065
[R_mid_hand03]
18 106.028137 -11.221827 -5.996406 -174.631485 14.897616 -67.203407 106.788818
19 106.028137 -11.221827 -5.996406 -175.861618 15.275425 -71.940262 106.788818
[spine02]
18 129.756927 0.001550 0.000119 0.465685 -4.033121 -14.470550 129.756927
19 129.756927 0.001550 0.000119 0.452562 -4.034682 -14.283840 129.756927
[spine03]
18 78.613586 0.081667 -4.899041 1.961832 3.799965 17.450371 78.766129
19 78.613556 0.081678 -4.899043 1.954082 3.803603 17.330063 78.766098
[pelvis]
18 169.435242 0.051022 0.000000 -0.068460 -0.178465 16.063526 169.435257
19 169.435242 0.051022 0.000000 -0.066851 -0.178784 15.816441 169.435257
[null_rope03_connect]
18 -1.257226 -2.466202 137.391083 -147.957153 -83.096634 -119.373734 137.418976
19 -1.257226 -2.466202 137.391083 -147.004608 -82.737045 -120.089493 137.418976
[null_rope04_connect]
18 -1.259640 -2.480268 -137.844437 -147.957153 -83.096634 -119.373734 137.872513
19 -1.259640 -2.480268 -137.844437 -147.004608 -82.737045 -120.089493 137.872513
[Rope3_Seg01]
18 -0.000019 0.000356 -0.000060 71.388573 -42.417347 40.959499 0.000361
19 -0.000019 0.000379 -0.000054 92.949081 -48.333481 29.897522 0.000383
[Rope3_Seg02]
18 139.999924 -0.000119 0.000060 -3.627298 -11.920085 -21.376429 139.999924
19 139.999924 -0.000119 0.000060 -2.222409 -10.089041 -17.878155 139.999924
[Rope3_Seg03]
18 139.999924 -0.000119 0.000119 122.236717 -11.820083 -9.690166 139.999924
19 139.999924 -0.000119 0.000119 54.256226 -10.381904 -6.582171 139.999924
[Rope3_Seg04]
18 139.999924 0.000119 0.000000 31.739937 -2.773057 4.888334 139.999924
19 139.999924 0.000119 0.000000 59.212460 -5.652699 -0.735218 139.999924
[Rope3_Seg05]
18 139.999924 -0.000238 0.000060 67.494659 -11.836739 1.777748 139.999924
19 139.999924 -0.000238 0.000060 119.981232 -15.504157 -3.431657 139.999924
[Rope3_Seg06]
18 139.999893 -0.000119 -0.000060 36.995541 -9.928388 24.947784 139.999893
19 139.999893 -0.000119 -0.000060 16.259296 5.512701 27.776907 139.999893
[Rope3_Seg07]
18 139.999771 0.000060 -0.000119 5.232430 5.867951 16.409887 139.999771
19 139.999771 0.000060 -0.000119 2.168631 7.658411 13.303534 139.999771
[Rope3_Seg08]
18 139.999985 -0.000060 0.000000 1.708135 3.965137 8.288482 139.999985
19 139.999985 -0.000060 0.000000 0.989100 4.332743 6.957601 139.999985
[Rope3_Seg09]
18 90.185997 -0.000179 -0.000060 89.793228 -1.359877 -0.847183 90.185997
19 90.185997 -0.000179 -0.000060 89.793228 -1.359877 -0.847183 90.185997
[R_rear_hand01]
18 103.366196 -6.073594 -10.757982 -174.043228 23.976637 -65.002998 104.101845
19 103.366196 -6.073594 -10.757982 -175.914093 24.346796 -69.567566 104.101845
[R_rear_hand02]
18 100.509819 12.039542 -7.992327 -18.533085 34.659092 62.503902 101.543350
19 100.509819 12.039542 -7.992327 -15.704349 35.886925 67.395027 101.543350
[R_rear_hand03]
18 101.539970 5.215704 5.435467 76.952385 -63.971771 15.629117 101.819031
19 101.539970 5.215704 5.435467 74.640678 -68.020927 18.152246 101.819031
[Rope4_Seg01]
18 0.000010 0.000038 -0.000114 67.309715 -28.512260 -138.940170 0.000121
19 0.000010 0.000038 -0.000114 64.217628 -26.963491 -134.948181 0.000121
[Rope4_Seg02]
18 139.999985 0.000060 0.000119 28.204618 -32.343666 1.200239 139.999985
19 139.999985 0.000060 0.000119 15.242640 -24.929220 1.365135 139.999985
[Rope4_Seg03]
18 139.999924 0.000000 -0.000238 63.417236 -25.408916 22.732452 139.999924
19 139.999924 0.000000 -0.000238 58.128372 -30.418999 16.340626 139.999924
[Rope4_Seg04]
18 139.999985 0.000000 0.000119 14.269468 3.469475 13.875667 139.999985
19 139.999985 0.000000 0.000119 24.967489 -0.038631 20.444418 139.999985
[Rope4_Seg05]
18 139.999802 -0.000060 -0.000119 14.333473 -7.072620 10.857704 139.999802
19 139.999802 -0.000060 -0.000119 18.307558 -8.083428 14.342874 139.999802
[Rope4_Seg06]
18 139.999924 0.000000 0.000060 24.357698 -12.405212 19.986403 139.999924
19 139.999924 0.000000 0.000060 20.525202 -8.708929 18.560122 139.999924
[Rope4_Seg07]
18 139.999802 0.000000 0.000000 11.992212 0.588157 14.959597 139.999802
19 139.999802 0.000000 0.000000 7.962315 1.097249 10.264999 139.999802
[Rope4_Seg08]
18 139.999924 0.000000 0.000119 3.381521 2.265077 8.355106 139.999924
19 139.999924 0.000000 0.000119 1.890515 1.490765 5.489569 139.999924
[Rope4_Seg09]
18 90.185791 0.000060 0.000060 -135.617828 2.228885 0.850567 90.185791
19 90.185791 0.000060 0.000060 -135.617828 2.228885 0.850567 90.185791
[L_rear_hand01]
18 101.696655 -8.392275 -7.654577 -13.354956 -36.717747 108.641342 102.329041
19 101.696655 -8.392275 -7.654577 -12.874833 -36.868488 107.832779 102.329041
[L_rear_hand02]
18 102.726799 -1.568258 5.773216 72.111618 71.190071 159.144638 102.900848
19 102.726799 -1.568258 5.773216 71.484573 71.816597 158.486160 102.900848
[L_rear_hand03]
18 104.552910 9.721220 -10.420293 -177.406540 -24.537506 -106.814919 105.519653
19 104.552910 9.721220 -10.420293 -177.714188 -24.565962 -106.089035 105.519653
